<?xml version="1.0" encoding="utf-8"?>
<!-- Generator: Adobe Illustrator 25.2.3, SVG Export Plug-In . SVG Version: 6.00 Build 0)  -->
<svg version="1.1" id="Layer_1" xmlns="http://www.w3.org/2000/svg" xmlns:xlink="http://www.w3.org/1999/xlink" x="0px" y="0px"
	 viewBox="0 0 24 24" style="enable-background:new 0 0 24 24;" xml:space="preserve">
<style type="text/css">
	.st0{fill:#FFFFFF;}
	.st1{fill:#CCE3EB;}
	.st2{fill:none;stroke:#FFFFFF;}
	.st3{fill:#ABABAB;stroke:#ABABAB;stroke-miterlimit:10;}
	.st4{fill:#ABABAB;}
</style>
<rect x="0" class="st0" width="24" height="24"/>
<rect x="3.7" y="5.4" class="st1" width="17" height="15.3"/>
<line id="Line_11" class="st2" x1="9.5" y1="3.6" x2="9.5" y2="5.4"/>
<line id="Line_13" class="st2" x1="17.1" y1="3.6" x2="17.1" y2="5.4"/>
<g>
	<path id="Path_46" class="st3" d="M7,13.7l3.4,3.2l6.6-6.1l-1-0.9l-5.7,5.2l-2.4-2.3L7,13.7z"/>
	<g>
		<rect x="9.9" y="3.6" class="st4" width="4.5" height="1.8"/>
		<path class="st4" d="M19.3,3.6h-1.6v1.8h1.6C19.7,5.4,20,5.7,20,6v13.5c0,0.4-0.3,0.6-0.7,0.6H4.9c-0.4,0-0.7-0.3-0.7-0.6V6
			c0-0.4,0.3-0.6,0.7-0.6h1.8V3.6H4.9C3.4,3.6,2.2,4.7,2.2,6v13.5c0,1.4,1.2,2.5,2.6,2.5h14.4c1.5,0,2.6-1.1,2.6-2.5V6
			C21.9,4.7,20.7,3.6,19.3,3.6z"/>
	</g>
	<rect x="7.2" y="2" class="st4" width="2" height="4"/>
	<rect x="15" y="2" class="st4" width="2" height="4"/>
</g>
</svg>
