<?xml version="1.0" encoding="utf-8"?>
<!-- Generator: Adobe Illustrator 25.2.3, SVG Export Plug-In . SVG Version: 6.00 Build 0)  -->
<svg version="1.1" id="Layer_1" xmlns="http://www.w3.org/2000/svg" xmlns:xlink="http://www.w3.org/1999/xlink" x="0px" y="0px"
	 viewBox="0 0 24 24" style="enable-background:new 0 0 24 24;" xml:space="preserve">
<style type="text/css">
	.st0{fill:none;}
	.st1{opacity:0.3;fill:#56A3BC;enable-background:new    ;}
	.st2{fill:#ABABAB;}
</style>
<g id="Group_16485">
	<rect id="Rectangle_94" y="0.1" class="st0" width="24" height="24"/>
</g>
<g id="Group_16487">
	<g id="Group_16486">
		<path id="Path_2376" class="st1" d="M12.1,4c-4.3,0-7.9,3.5-7.9,7.9s3.5,7.9,7.9,7.9s7.9-3.5,7.9-7.9C19.9,7.5,16.4,4,12.1,4z
			 M16.2,16l-5.1-3.1V7h1.5v5.1l4.4,2.7L16.2,16z"/>
		<path id="Path_2377" class="st2" d="M12.1,2.1c-5.4,0-9.8,4.4-9.8,9.8s4.4,9.8,9.8,9.8s9.8-4.4,9.8-9.8
			C21.9,6.5,17.5,2.1,12.1,2.1z M12.1,19.7c-4.3,0-7.9-3.5-7.9-7.9S7.8,4,12.1,4s7.9,3.5,7.9,7.9C19.9,16.2,16.4,19.7,12.1,19.7z
			 M12.6,7h-1.5v5.9l5.1,3.1l0.8-1.3l-4.4-2.7V7z"/>
	</g>
</g>
</svg>
