<?xml version="1.0" encoding="utf-8"?>
<!-- Generator: Adobe Illustrator 25.2.3, SVG Export Plug-In . SVG Version: 6.00 Build 0)  -->
<svg version="1.1" id="Group_16580" xmlns="http://www.w3.org/2000/svg" xmlns:xlink="http://www.w3.org/1999/xlink" x="0px"
	 y="0px" viewBox="0 0 20.1 21.8" style="enable-background:new 0 0 20.1 21.8;" xml:space="preserve">
<style type="text/css">
	.st0{fill:#707070;stroke:#707070;}
	.st1{fill:none;stroke:#FFFFFF;}
	.st2{fill:#707070;}
</style>
<path id="Path_46" class="st0" d="M4.9,12.8l3.5,3.5l6.7-6.7l-1-1l-5.8,5.7l-2.5-2.5L4.9,12.8z"/>
<line id="Line_11" class="st1" x1="7.3" y1="1.7" x2="7.3" y2="3.7"/>
<line id="Line_13" class="st1" x1="15.1" y1="1.7" x2="15.1" y2="3.7"/>
<g>
	<rect x="7.8" y="1.7" class="st2" width="4.6" height="2"/>
	<path class="st2" d="M17.4,1.7h-1.6v2h1.6c0.4,0,0.7,0.3,0.7,0.7v14.7c0,0.4-0.3,0.7-0.7,0.7H2.7c-0.4,0-0.7-0.3-0.7-0.7V4.4
		C2,4,2.3,3.7,2.7,3.7h1.8v-2H2.7C1.2,1.7,0,2.9,0,4.4v14.7c0,1.5,1.2,2.7,2.7,2.7h14.7c1.5,0,2.7-1.2,2.7-2.7V4.4
		C20.1,2.9,18.9,1.7,17.4,1.7z"/>
</g>
<rect x="5.1" class="st2" width="2" height="4.5"/>
<rect x="13" class="st2" width="2" height="4.5"/>
</svg>
