<?xml version="1.0" encoding="utf-8"?>
<!-- Generator: Adobe Illustrator 25.2.3, SVG Export Plug-In . SVG Version: 6.00 Build 0)  -->
<svg version="1.1" id="Group_16477" xmlns="http://www.w3.org/2000/svg" xmlns:xlink="http://www.w3.org/1999/xlink" x="0px"
	 y="0px" viewBox="0 0 24 24" style="enable-background:new 0 0 24 24;" xml:space="preserve">
<style type="text/css">
	.st0{fill:none;}
	.st1{opacity:0.3;fill:#56A3BC;enable-background:new    ;}
	.st2{fill:#ABABAB;}
</style>
<rect id="Rectangle_93" class="st0" width="24" height="24"/>
<path id="Path_2374" class="st1" d="M10,19H4v-2h6V19z M10,15H4v-2h6V15z M10,11H4V9h6V11z M10,7H4V5h6V7z M20,19h-8V9h8V19z M18,11
	h-4v2h4V11z M18,15h-4v2h4V15z"/>
<path id="Path_2375" class="st2" d="M12,7V3H2v18h20V7H12z M10,19H4v-2h6V19z M10,15H4v-2h6V15z M10,11H4V9h6V11z M10,7H4V5h6V7z
	 M20,19h-8V9h8V19z M18,11h-4v2h4V11z M18,15h-4v2h4V15z"/>
</svg>
