<?xml version="1.0" encoding="utf-8"?>
<!-- Generator: Adobe Illustrator 25.2.3, SVG Export Plug-In . SVG Version: 6.00 Build 0)  -->
<svg version="1.1" id="Layer_1" xmlns="http://www.w3.org/2000/svg" xmlns:xlink="http://www.w3.org/1999/xlink" x="0px" y="0px"
	 viewBox="0 0 24 24" style="enable-background:new 0 0 24 24;" xml:space="preserve">
<style type="text/css">
	.st0{fill:none;}
	.st1{fill:#CCE3EB;}
	.st2{fill:#ABABAB;}
</style>
<g id="Group_16480">
	<path id="Path_2372" class="st0" d="M0,0h24v24H0V0z"/>
</g>
<g id="Path_2383" transform="translate(50.24 173)">
	<path class="st1" d="M-34.2-161.3h-8.4v-8.4c0-0.6,0.5-1.1,1.1-1.1h6.1c0.6,0,1.1,0.5,1.1,1.1V-161.3z"/>
	<path class="st2" d="M-41.5-169.8c-0.1,0-0.1,0.1-0.1,0.1v7.4h6.4v-7.4c0-0.1-0.1-0.1-0.1-0.1H-41.5 M-41.5-171.8h6.1
		c1.2,0,2.1,1,2.1,2.1v9.4h-10.4v-9.4C-43.6-170.9-42.7-171.8-41.5-171.8z"/>
</g>
<rect x="10.8" y="14.5" class="st2" width="2" height="6.6"/>
<g id="Path_2382" transform="translate(49 184.493)">
	<path class="st1" d="M-31.9-168.4h-10.5c-1.2,0-2.2-1-2.2-2.2s1-2.2,2.2-2.2h10.5c1.2,0,2.2,1,2.2,2.2S-30.7-168.4-31.9-168.4z"/>
	<path class="st2" d="M-42.4-171.8c-0.7,0-1.2,0.5-1.2,1.2c0,0.7,0.5,1.2,1.2,1.2h10.5c0.7,0,1.2-0.5,1.2-1.2c0-0.7-0.5-1.2-1.2-1.2
		H-42.4 M-42.4-173.8h10.5c1.8,0,3.2,1.4,3.2,3.2c0,1.8-1.4,3.2-3.2,3.2h-10.5c-1.8,0-3.2-1.4-3.2-3.2
		C-45.6-172.4-44.2-173.8-42.4-173.8z"/>
</g>
<rect x="5.9" y="20.5" class="st2" width="12.1" height="2"/>
</svg>
